<?xml version="1.0" encoding="UTF-8"?>
<svg id="Layer_2" data-name="Layer 2" xmlns="http://www.w3.org/2000/svg" viewBox="0 0 289.05 78.94">
  <defs>
    <style>
      .cls-1 {
        fill: #fff;
      }
    </style>
  </defs>
  <g id="Layer_2-2" data-name="Layer 2">
    <g>
      <g>
        <g>
          <path class="cls-1"
            d="m15.8,78.94c-4.83,0-8.79-1.41-11.59-4.21-4.79-4.79-5.52-12.98-2.07-23.06,3.38-9.87,10.39-20.45,19.73-29.79h0s0,0,0,0C31.21,12.53,41.79,5.52,51.66,2.15c10.08-3.45,18.28-2.72,23.06,2.07,4.79,4.79,5.52,12.98,2.07,23.06-3.38,9.87-10.39,20.45-19.73,29.79-9.34,9.34-19.92,16.35-29.79,19.73-4.19,1.43-8.05,2.15-11.47,2.15ZM63.13,1.81c-3.22,0-6.88.68-10.88,2.05-9.61,3.29-19.94,10.14-29.09,19.29h0C14.01,32.31,7.16,42.64,3.87,52.25c-3.22,9.39-2.64,16.92,1.63,21.19,4.27,4.27,11.8,4.85,21.19,1.63,9.61-3.29,19.94-10.14,29.09-19.29,9.15-9.15,16-19.48,19.29-29.09,3.22-9.39,2.64-16.92-1.63-21.19-2.45-2.45-5.97-3.69-10.3-3.69Z" />
          <path class="cls-1"
            d="m63.13,78.94c-3.43,0-7.29-.71-11.47-2.15-9.87-3.38-20.45-10.38-29.79-19.73C12.53,47.72,5.53,37.14,2.15,27.28-1.31,17.19-.57,9,4.21,4.21,9-.57,17.19-1.31,27.28,2.15c9.87,3.38,20.45,10.39,29.79,19.73h0c9.34,9.34,16.35,19.92,19.73,29.79,3.45,10.09,2.72,18.28-2.07,23.06-2.8,2.8-6.76,4.21-11.59,4.21ZM15.8,1.81c-4.33,0-7.85,1.24-10.3,3.69C1.23,9.77.65,17.29,3.87,26.69c3.29,9.61,10.14,19.94,19.29,29.09,9.15,9.15,19.48,16,29.09,19.29,9.39,3.22,16.92,2.64,21.19-1.63,4.27-4.27,4.85-11.79,1.63-21.19-3.29-9.61-10.14-19.94-19.29-29.09h0C46.63,14.01,36.3,7.16,26.69,3.87c-4-1.37-7.67-2.05-10.88-2.05Z" />
        </g>
        <path class="cls-1"
          d="m39.27,20.24s-.13,16.52-18.83,19.23v.2s16.52.13,19.23,18.83v.2s.13-16.52,18.83-19.23v-.2s-16.52-.13-19.23-18.83v-.2Z" />
      </g>
      <g>
        <path class="cls-1" d="m113.68,47.18h15.81v7.93h-24.67V18.21h8.86v28.97Z" />
        <path class="cls-1"
          d="m150.28,48.16h-.74c-1.48,4.61-4.55,7.57-9.53,7.57s-8.55-2.52-8.55-8.24c0-5.23,3.08-8.86,10.76-8.86h7.63v-2.03c0-3.01-1.29-4.74-4.49-4.74-2.77,0-4.37,1.35-4.92,4.18l-7.87-1.78c.98-5.29,5.04-9.04,13.1-9.04,8.86,0,12.49,4.06,12.49,11.38v18.51h-7.87v-6.95Zm-.43-4.24v-1.17h-6.03c-2.71,0-4.43,1.23-4.43,3.26,0,1.85,1.05,3.32,4.24,3.32,3.81,0,6.21-2.28,6.21-5.41Z" />
        <path class="cls-1"
          d="m160.25,65.01l1.23-7.07c1.23.25,2.52.43,3.75.43,2.95,0,4.49-.55,5.84-3.63l-10.95-28.79h9.16l2.89,10.7c.86,3.26,1.91,7.01,2.83,10.58h1.05c.92-3.63,1.91-7.26,2.64-10.39l2.71-10.89h8.98l-11.5,29.28c-2.83,7.13-6.52,10.21-13.84,10.21-2.03,0-3.26-.18-4.8-.43Z" />
        <path class="cls-1"
          d="m190.57,41.15c0-10.09,5.47-15.99,14.95-15.99,8.98,0,13.22,5.29,13.22,13.35,0,1.23-.06,2.4-.18,3.94h-19.74c.49,4.67,2.65,6.77,6.64,6.77s5.17-1.85,5.9-4.06l7.01,1.91c-1.29,5.04-4.67,8.86-12.98,8.86-8.8,0-14.82-4.86-14.82-14.76Zm8.3-2.95h12.18c-.12-4.55-2.03-6.77-5.78-6.77s-5.97,1.97-6.4,6.77Z" />
        <path class="cls-1"
          d="m222.74,55.11v-29.15h7.93v9.47h.68c1.85-8.12,4.31-9.78,8.12-9.78h.86v9.6h-1.72c-5.84,0-7.5,1.72-7.5,6.89v12.98h-8.37Z" />
        <path class="cls-1"
          d="m266.16,46.93h-14.27l-2.52,8.18h-9.17l12.92-36.9h12.18l12.85,36.9h-9.47l-2.52-8.18Zm-12.24-6.46h10.21l-1.41-4.55c-1.05-3.32-2.03-6.77-2.89-10.09h-1.48c-.92,3.32-1.97,6.77-3.01,10.09l-1.42,4.55Z" />
        <path class="cls-1" d="m280.19,55.11V18.21h8.86v36.9h-8.86Z" />
      </g>
    </g>
  </g>
</svg>